<svg width="110" height="20" viewBox="0 0 110 20" fill="none" xmlns="http://www.w3.org/2000/svg">
<rect width="110" height="20" rx="3" fill="white"/>
<path d="M28.4445 7.75C26.5311 7.75 25.1515 8.9875 25.1515 10.8438C25.1515 12.7 26.7044 13.9375 28.6179 13.9375C29.7739 13.9375 30.793 13.4837 31.4238 12.7189L30.098 11.9592C29.7479 12.3391 29.2158 12.5608 28.6179 12.5608C27.7877 12.5608 27.0823 12.1311 26.8206 11.4436H31.6769C31.715 11.2511 31.7376 11.0517 31.7376 10.842C31.7376 8.9875 30.358 7.75 28.4445 7.75ZM26.805 10.2422C27.0216 9.55641 27.6144 9.125 28.4428 9.125C29.273 9.125 29.8657 9.55641 30.0806 10.2422H26.805ZM47.1072 7.75C45.1938 7.75 43.8142 8.9875 43.8142 10.8438C43.8142 12.7 45.3672 13.9375 47.2806 13.9375C48.4366 13.9375 49.4557 13.4837 50.0866 12.7189L48.7607 11.9592C48.4106 12.3391 47.8785 12.5608 47.2806 12.5608C46.4504 12.5608 45.745 12.1311 45.4833 11.4436H50.3396C50.3777 11.2511 50.4003 11.0517 50.4003 10.842C50.4003 8.9875 49.0207 7.75 47.1072 7.75ZM45.4694 10.2422C45.6861 9.55641 46.2788 9.125 47.1072 9.125C47.9374 9.125 48.5302 9.55641 48.7451 10.2422H45.4694ZM38.7049 10.8438C38.7049 11.875 39.3843 12.5625 40.438 12.5625C41.1521 12.5625 41.6876 12.2411 41.9632 11.7169L43.2943 12.4783C42.7431 13.3892 41.7102 13.9375 40.438 13.9375C38.5229 13.9375 37.145 12.7 37.145 10.8438C37.145 8.9875 38.5246 7.75 40.438 7.75C41.7102 7.75 42.7414 8.29828 43.2943 9.20922L41.9632 9.97063C41.6876 9.44641 41.1521 9.125 40.438 9.125C39.386 9.125 38.7049 9.8125 38.7049 10.8438ZM53 5.85938V13.7656H51.4402V5.85938H53ZM10.404 5L16.8081 16H4L10.404 5ZM26.415 5.85938L21.6124 14.1094L16.8098 5.85938H18.6106L21.6124 11.0156L24.6142 5.85938H26.415ZM36.6251 7.92188V9.58734C36.4518 9.5375 36.268 9.50313 36.0705 9.50313C35.0635 9.50313 34.3373 10.1906 34.3373 11.2219V13.7656H32.7774V7.92188H34.3373V9.50313C34.3373 8.63 35.3616 7.92188 36.6251 7.92188Z" fill="black"/>
<path d="M58 0H107C108.657 0 110 1.34315 110 3V17C110 18.6569 108.657 20 107 20H58V0Z" fill="black"/>
<circle cx="66.5" cy="10" r="3.5" fill="#13F200"/>
<path d="M77.615 13.65C76.8983 13.65 76.2933 13.4917 75.8 13.175C75.3067 12.855 74.9333 12.4133 74.68 11.85C74.4267 11.2867 74.3 10.6367 74.3 9.9C74.3 9.16333 74.4267 8.51333 74.68 7.95C74.9333 7.38667 75.3067 6.94667 75.8 6.63C76.2933 6.31 76.8983 6.15 77.615 6.15C78.335 6.15 78.94 6.31 79.43 6.63C79.9233 6.94667 80.2967 7.38667 80.55 7.95C80.8067 8.51333 80.935 9.16333 80.935 9.9C80.935 10.6367 80.8067 11.2867 80.55 11.85C80.2967 12.4133 79.9233 12.855 79.43 13.175C78.94 13.4917 78.335 13.65 77.615 13.65ZM77.615 12.945C78.1783 12.945 78.6483 12.8167 79.025 12.56C79.4017 12.3033 79.6833 11.9467 79.87 11.49C80.06 11.03 80.155 10.5 80.155 9.9C80.155 9.3 80.06 8.77167 79.87 8.315C79.6833 7.85833 79.4017 7.50167 79.025 7.245C78.6483 6.98833 78.1783 6.85833 77.615 6.855C77.0517 6.855 76.5833 6.98333 76.21 7.24C75.8367 7.49667 75.555 7.855 75.365 8.315C75.1783 8.77167 75.0833 9.3 75.08 9.9C75.0767 10.5 75.1683 11.0283 75.355 11.485C75.545 11.9383 75.8283 12.295 76.205 12.555C76.5817 12.8117 77.0517 12.9417 77.615 12.945ZM85.8363 13.5V10.745C85.8363 10.445 85.808 10.17 85.7513 9.92C85.6947 9.66667 85.603 9.44667 85.4763 9.26C85.353 9.07 85.1913 8.92333 84.9913 8.82C84.7947 8.71667 84.5547 8.665 84.2713 8.665C84.0113 8.665 83.7813 8.71 83.5813 8.8C83.3847 8.89 83.218 9.02 83.0813 9.19C82.948 9.35667 82.8463 9.56 82.7763 9.8C82.7063 10.04 82.6713 10.3133 82.6713 10.62L82.1513 10.505C82.1513 9.95167 82.248 9.48667 82.4413 9.11C82.6347 8.73333 82.9013 8.44833 83.2413 8.255C83.5813 8.06167 83.9713 7.965 84.4113 7.965C84.7347 7.965 85.0163 8.015 85.2563 8.115C85.4997 8.215 85.7047 8.35 85.8713 8.52C86.0413 8.69 86.178 8.885 86.2813 9.105C86.3847 9.32167 86.4597 9.55333 86.5063 9.8C86.553 10.0433 86.5763 10.2867 86.5763 10.53V13.5H85.8363ZM81.9313 13.5V8.1H82.5963V9.43H82.6713V13.5H81.9313ZM87.9738 13.5V6.15H88.7088V13.5H87.9738ZM90.3078 7.075V6.25H91.0428V7.075H90.3078ZM90.3078 13.5V8.1H91.0428V13.5H90.3078ZM96.4418 13.5V10.745C96.4418 10.445 96.4135 10.17 96.3568 9.92C96.3001 9.66667 96.2085 9.44667 96.0818 9.26C95.9585 9.07 95.7968 8.92333 95.5968 8.82C95.4001 8.71667 95.1601 8.665 94.8768 8.665C94.6168 8.665 94.3868 8.71 94.1868 8.8C93.9901 8.89 93.8235 9.02 93.6868 9.19C93.5535 9.35667 93.4518 9.56 93.3818 9.8C93.3118 10.04 93.2768 10.3133 93.2768 10.62L92.7568 10.505C92.7568 9.95167 92.8535 9.48667 93.0468 9.11C93.2401 8.73333 93.5068 8.44833 93.8468 8.255C94.1868 8.06167 94.5768 7.965 95.0168 7.965C95.3401 7.965 95.6218 8.015 95.8618 8.115C96.1051 8.215 96.3101 8.35 96.4768 8.52C96.6468 8.69 96.7835 8.885 96.8868 9.105C96.9901 9.32167 97.0651 9.55333 97.1118 9.8C97.1585 10.0433 97.1818 10.2867 97.1818 10.53V13.5H96.4418ZM92.5368 13.5V8.1H93.2018V9.43H93.2768V13.5H92.5368ZM100.735 13.65C100.208 13.65 99.7517 13.5333 99.365 13.3C98.9817 13.0667 98.6833 12.7383 98.47 12.315C98.2567 11.8917 98.15 11.395 98.15 10.825C98.15 10.235 98.255 9.725 98.465 9.295C98.675 8.865 98.97 8.53333 99.35 8.3C99.7333 8.06667 100.185 7.95 100.705 7.95C101.238 7.95 101.693 8.07333 102.07 8.32C102.447 8.56333 102.732 8.91333 102.925 9.37C103.118 9.82667 103.207 10.3717 103.19 11.005H102.44V10.745C102.427 10.045 102.275 9.51667 101.985 9.16C101.698 8.80333 101.278 8.625 100.725 8.625C100.145 8.625 99.7 8.81333 99.39 9.19C99.0833 9.56667 98.93 10.1033 98.93 10.8C98.93 11.48 99.0833 12.0083 99.39 12.385C99.7 12.7583 100.138 12.945 100.705 12.945C101.092 12.945 101.428 12.8567 101.715 12.68C102.005 12.5 102.233 12.2417 102.4 11.905L103.085 12.17C102.872 12.64 102.557 13.005 102.14 13.265C101.727 13.5217 101.258 13.65 100.735 13.65ZM98.67 11.005V10.39H102.795V11.005H98.67Z" fill="white"/>
</svg>
