<svg width="110" height="20" viewBox="0 0 110 20" fill="none" xmlns="http://www.w3.org/2000/svg">
<rect width="110" height="20" rx="3" fill="white"/>
<path d="M28.4445 7.75C26.5311 7.75 25.1515 8.9875 25.1515 10.8438C25.1515 12.7 26.7044 13.9375 28.6179 13.9375C29.7739 13.9375 30.793 13.4837 31.4238 12.7189L30.098 11.9592C29.7479 12.3391 29.2158 12.5608 28.6179 12.5608C27.7877 12.5608 27.0823 12.1311 26.8206 11.4436H31.6769C31.715 11.2511 31.7376 11.0517 31.7376 10.842C31.7376 8.9875 30.358 7.75 28.4445 7.75ZM26.805 10.2422C27.0216 9.55641 27.6144 9.125 28.4428 9.125C29.273 9.125 29.8657 9.55641 30.0806 10.2422H26.805ZM47.1072 7.75C45.1938 7.75 43.8142 8.9875 43.8142 10.8438C43.8142 12.7 45.3672 13.9375 47.2806 13.9375C48.4366 13.9375 49.4557 13.4837 50.0866 12.7189L48.7607 11.9592C48.4106 12.3391 47.8785 12.5608 47.2806 12.5608C46.4504 12.5608 45.745 12.1311 45.4833 11.4436H50.3396C50.3777 11.2511 50.4003 11.0517 50.4003 10.842C50.4003 8.9875 49.0207 7.75 47.1072 7.75ZM45.4694 10.2422C45.6861 9.55641 46.2788 9.125 47.1072 9.125C47.9374 9.125 48.5302 9.55641 48.7451 10.2422H45.4694ZM38.7049 10.8438C38.7049 11.875 39.3843 12.5625 40.438 12.5625C41.1521 12.5625 41.6876 12.2411 41.9632 11.7169L43.2943 12.4783C42.7431 13.3892 41.7102 13.9375 40.438 13.9375C38.5229 13.9375 37.145 12.7 37.145 10.8438C37.145 8.9875 38.5246 7.75 40.438 7.75C41.7102 7.75 42.7414 8.29828 43.2943 9.20922L41.9632 9.97063C41.6876 9.44641 41.1521 9.125 40.438 9.125C39.386 9.125 38.7049 9.8125 38.7049 10.8438ZM53 5.85938V13.7656H51.4402V5.85938H53ZM10.404 5L16.8081 16H4L10.404 5ZM26.415 5.85938L21.6124 14.1094L16.8098 5.85938H18.6106L21.6124 11.0156L24.6142 5.85938H26.415ZM36.6251 7.92188V9.58734C36.4518 9.5375 36.268 9.50313 36.0705 9.50313C35.0635 9.50313 34.3373 10.1906 34.3373 11.2219V13.7656H32.7774V7.92188H34.3373V9.50313C34.3373 8.63 35.3616 7.92188 36.6251 7.92188Z" fill="black"/>
<rect width="50" height="20" transform="translate(60)" fill="black"/>
<circle cx="70.5" cy="10" r="3.5" fill="#13F200"/>
<path d="M80.892 13.12C80.3187 13.12 79.8347 12.9933 79.44 12.74C79.0453 12.484 78.7467 12.1307 78.544 11.68C78.3413 11.2293 78.24 10.7093 78.24 10.12C78.24 9.53067 78.3413 9.01067 78.544 8.56C78.7467 8.10933 79.0453 7.75733 79.44 7.504C79.8347 7.248 80.3187 7.12 80.892 7.12C81.468 7.12 81.952 7.248 82.344 7.504C82.7387 7.75733 83.0373 8.10933 83.24 8.56C83.4453 9.01067 83.548 9.53067 83.548 10.12C83.548 10.7093 83.4453 11.2293 83.24 11.68C83.0373 12.1307 82.7387 12.484 82.344 12.74C81.952 12.9933 81.468 13.12 80.892 13.12ZM80.892 12.556C81.3427 12.556 81.7187 12.4533 82.02 12.248C82.3213 12.0427 82.5467 11.7573 82.696 11.392C82.848 11.024 82.924 10.6 82.924 10.12C82.924 9.64 82.848 9.21733 82.696 8.852C82.5467 8.48667 82.3213 8.20133 82.02 7.996C81.7187 7.79067 81.3427 7.68667 80.892 7.684C80.4413 7.684 80.0667 7.78667 79.768 7.992C79.4693 8.19733 79.244 8.484 79.092 8.852C78.9427 9.21733 78.8667 9.64 78.864 10.12C78.8613 10.6 78.9347 11.0227 79.084 11.388C79.236 11.7507 79.4627 12.036 79.764 12.244C80.0653 12.4493 80.4413 12.5533 80.892 12.556ZM87.4691 13V10.796C87.4691 10.556 87.4464 10.336 87.4011 10.136C87.3557 9.93333 87.2824 9.75733 87.1811 9.608C87.0824 9.456 86.9531 9.33867 86.7931 9.256C86.6357 9.17333 86.4437 9.132 86.2171 9.132C86.0091 9.132 85.8251 9.168 85.6651 9.24C85.5077 9.312 85.3744 9.416 85.2651 9.552C85.1584 9.68533 85.0771 9.848 85.0211 10.04C84.9651 10.232 84.9371 10.4507 84.9371 10.696L84.5211 10.604C84.5211 10.1613 84.5984 9.78933 84.7531 9.488C84.9077 9.18667 85.1211 8.95867 85.3931 8.804C85.6651 8.64933 85.9771 8.572 86.3291 8.572C86.5877 8.572 86.8131 8.612 87.0051 8.692C87.1997 8.772 87.3637 8.88 87.4971 9.016C87.6331 9.152 87.7424 9.308 87.8251 9.484C87.9077 9.65733 87.9677 9.84267 88.0051 10.04C88.0424 10.2347 88.0611 10.4293 88.0611 10.624V13H87.4691ZM84.3451 13V8.68H84.8771V9.744H84.9371V13H84.3451ZM89.1791 13V7.12H89.7671V13H89.1791ZM91.0463 7.86V7.2H91.6343V7.86H91.0463ZM91.0463 13V8.68H91.6343V13H91.0463ZM95.9534 13V10.796C95.9534 10.556 95.9308 10.336 95.8854 10.136C95.8401 9.93333 95.7668 9.75733 95.6654 9.608C95.5668 9.456 95.4374 9.33867 95.2774 9.256C95.1201 9.17333 94.9281 9.132 94.7014 9.132C94.4934 9.132 94.3094 9.168 94.1494 9.24C93.9921 9.312 93.8588 9.416 93.7494 9.552C93.6428 9.68533 93.5614 9.848 93.5054 10.04C93.4494 10.232 93.4214 10.4507 93.4214 10.696L93.0054 10.604C93.0054 10.1613 93.0828 9.78933 93.2374 9.488C93.3921 9.18667 93.6054 8.95867 93.8774 8.804C94.1494 8.64933 94.4614 8.572 94.8134 8.572C95.0721 8.572 95.2974 8.612 95.4894 8.692C95.6841 8.772 95.8481 8.88 95.9814 9.016C96.1174 9.152 96.2268 9.308 96.3094 9.484C96.3921 9.65733 96.4521 9.84267 96.4894 10.04C96.5268 10.2347 96.5454 10.4293 96.5454 10.624V13H95.9534ZM92.8294 13V8.68H93.3614V9.744H93.4214V13H92.8294ZM99.388 13.12C98.9667 13.12 98.6013 13.0267 98.292 12.84C97.9853 12.6533 97.7467 12.3907 97.576 12.052C97.4053 11.7133 97.32 11.316 97.32 10.86C97.32 10.388 97.404 9.98 97.572 9.636C97.74 9.292 97.976 9.02667 98.28 8.84C98.5867 8.65333 98.948 8.56 99.364 8.56C99.7907 8.56 100.155 8.65867 100.456 8.856C100.757 9.05067 100.985 9.33067 101.14 9.696C101.295 10.0613 101.365 10.4973 101.352 11.004H100.752V10.796C100.741 10.236 100.62 9.81333 100.388 9.528C100.159 9.24267 99.8227 9.1 99.38 9.1C98.916 9.1 98.56 9.25067 98.312 9.552C98.0667 9.85333 97.944 10.2827 97.944 10.84C97.944 11.384 98.0667 11.8067 98.312 12.108C98.56 12.4067 98.9107 12.556 99.364 12.556C99.6733 12.556 99.9427 12.4853 100.172 12.344C100.404 12.2 100.587 11.9933 100.72 11.724L101.268 11.936C101.097 12.312 100.845 12.604 100.512 12.812C100.181 13.0173 99.8067 13.12 99.388 13.12ZM97.736 11.004V10.512H101.036V11.004H97.736Z" fill="white"/>
</svg>
